<svg width="40" height="32" viewBox="0 0 40 32" fill="none" xmlns="http://www.w3.org/2000/svg">
<circle cx="1.38461" cy="15.537" r="1.38461" fill="white"/>
<circle cx="38.6151" cy="15.537" r="1.38461" fill="white"/>
<path d="M25.2308 15.5384C25.2308 18.4273 22.8889 20.7692 20 20.7692C17.1111 20.7692 14.7692 18.4273 14.7692 15.5384C14.7692 12.6496 17.1111 10.3077 20 10.3077V8.15383C15.9216 8.15383 12.6154 11.46 12.6154 15.5384C12.6154 19.6168 15.9216 22.923 20 22.923C24.0784 22.923 27.3846 19.6168 27.3846 15.5384C27.3846 11.46 24.0784 8.15383 20 8.15383V10.3077C22.8889 10.3077 25.2308 12.6496 25.2308 15.5384Z" fill="white"/>
<path d="M25.2308 15.5384C25.2308 18.4273 22.8889 20.7692 20 20.7692C17.1111 20.7692 14.7692 18.4273 14.7692 15.5384C14.7692 12.6496 17.1111 10.3077 20 10.3077V8.15383C15.9216 8.15383 12.6154 11.46 12.6154 15.5384C12.6154 19.6168 15.9216 22.923 20 22.923C24.0784 22.923 27.3846 19.6168 27.3846 15.5384C27.3846 11.46 24.0784 8.15383 20 8.15383V10.3077C22.8889 10.3077 25.2308 12.6496 25.2308 15.5384Z" fill="white"/>
<path d="M22.6472 15.5384C22.6472 16.9829 21.462 18.1538 20 18.1538C18.538 18.1538 17.3528 16.9829 17.3528 15.5384C17.3528 14.094 18.538 12.9231 20 12.9231C21.462 12.9231 22.6472 14.094 22.6472 15.5384Z" fill="white"/>
<path d="M22.6472 15.5384C22.6472 16.9829 21.462 18.1538 20 18.1538C18.538 18.1538 17.3528 16.9829 17.3528 15.5384C17.3528 14.094 18.538 12.9231 20 12.9231C21.462 12.9231 22.6472 14.094 22.6472 15.5384Z" fill="white"/>
<path d="M3.66981 12.4097C10.2054 6.16068 15.7907 3.52413 21.1681 3.87731C26.5101 4.22818 31.3695 7.51886 36.4841 12.4099C36.8525 12.7622 36.8655 13.3464 36.5132 13.7149C36.1609 14.0833 35.5767 14.0964 35.2082 13.744C30.1535 8.91017 25.7025 6.02517 21.047 5.71941C16.427 5.41599 11.3277 7.64188 4.94565 13.7442C4.57718 14.0965 3.99282 14.0833 3.64051 13.7149C3.28822 13.3464 3.30135 12.7621 3.66981 12.4097Z" fill="white"/>
<path d="M3.66981 12.4097C10.2054 6.16068 15.7907 3.52413 21.1681 3.87731C26.5101 4.22818 31.3695 7.51886 36.4841 12.4099C36.8525 12.7622 36.8655 13.3464 36.5132 13.7149C36.1609 14.0833 35.5767 14.0964 35.2082 13.744C30.1535 8.91017 25.7025 6.02517 21.047 5.71941C16.427 5.41599 11.3277 7.64188 4.94565 13.7442C4.57718 14.0965 3.99282 14.0833 3.64051 13.7149C3.28822 13.3464 3.30135 12.7621 3.66981 12.4097Z" fill="white"/>
<path d="M36.484 18.821C29.9485 25.07 24.3631 27.7066 18.9857 27.3534C13.6437 27.0025 8.7843 23.7118 3.66979 18.8208C3.30135 18.4685 3.2883 17.8843 3.64064 17.5158C3.99299 17.1474 4.57719 17.1343 4.94563 17.4867C10.0004 22.3205 14.4513 25.2055 19.1068 25.5113C23.7269 25.8147 28.8261 23.5888 35.2082 17.4865C35.5767 17.1342 36.161 17.1474 36.5133 17.5158C36.8656 17.8843 36.8525 18.4687 36.484 18.821Z" fill="white"/>
<path d="M36.484 18.821C29.9485 25.07 24.3631 27.7066 18.9857 27.3534C13.6437 27.0025 8.7843 23.7118 3.66979 18.8208C3.30135 18.4685 3.2883 17.8843 3.64064 17.5158C3.99299 17.1474 4.57719 17.1343 4.94563 17.4867C10.0004 22.3205 14.4513 25.2055 19.1068 25.5113C23.7269 25.8147 28.8261 23.5888 35.2082 17.4865C35.5767 17.1342 36.161 17.1474 36.5133 17.5158C36.8656 17.8843 36.8525 18.4687 36.484 18.821Z" fill="white"/>
<path d="M0.281756 10.4131C8.17089 2.79207 14.8781 -0.388989 21.308 0.0376736C27.7016 0.461933 33.5383 4.44228 39.7183 10.4131C40.0849 10.7673 40.095 11.3518 39.7408 11.7184C39.3866 12.085 38.8022 12.0951 38.4355 11.7409C32.3132 5.82578 26.8866 2.25806 21.1857 1.87977C15.5211 1.5039 9.3026 4.26581 1.56451 11.7409C1.19785 12.0951 0.61342 12.085 0.25922 11.7184C-0.0949751 11.3517 -0.0848907 10.7673 0.281756 10.4131Z" fill="white"/>
<path d="M0.281756 10.4131C8.17089 2.79207 14.8781 -0.388989 21.308 0.0376736C27.7016 0.461933 33.5383 4.44228 39.7183 10.4131C40.0849 10.7673 40.095 11.3518 39.7408 11.7184C39.3866 12.085 38.8022 12.0951 38.4355 11.7409C32.3132 5.82578 26.8866 2.25806 21.1857 1.87977C15.5211 1.5039 9.3026 4.26581 1.56451 11.7409C1.19785 12.0951 0.61342 12.085 0.25922 11.7184C-0.0949751 11.3517 -0.0848907 10.7673 0.281756 10.4131Z" fill="white"/>
<path d="M39.7182 20.8176C31.8291 28.4386 25.1219 31.6197 18.692 31.193C12.2984 30.7688 6.46167 26.7884 0.281712 20.8176C-0.0849097 20.4634 -0.0950165 19.879 0.259176 19.5123C0.613392 19.1457 1.19783 19.1356 1.56446 19.4898C7.68679 25.4049 13.1134 28.9727 18.8143 29.3509C24.4789 29.7268 30.6974 26.9649 38.4355 19.4898C38.8021 19.1356 39.3866 19.1457 39.7408 19.5123C40.095 19.879 40.0849 20.4634 39.7182 20.8176Z" fill="white"/>
<path d="M39.7182 20.8176C31.8291 28.4386 25.1219 31.6197 18.692 31.193C12.2984 30.7688 6.46167 26.7884 0.281712 20.8176C-0.0849097 20.4634 -0.0950165 19.879 0.259176 19.5123C0.613392 19.1457 1.19783 19.1356 1.56446 19.4898C7.68679 25.4049 13.1134 28.9727 18.8143 29.3509C24.4789 29.7268 30.6974 26.9649 38.4355 19.4898C38.8021 19.1356 39.3866 19.1457 39.7408 19.5123C40.095 19.879 40.0849 20.4634 39.7182 20.8176Z" fill="white"/>
</svg>
